<svg width="12" height="12" viewBox="0 0 12 12" fill="none" xmlns="http://www.w3.org/2000/svg">
<g clip-path="url(#clip0_92_22)">
<path d="M9.9726 3.67535C9.98557 3.66778 9.99633 3.65694 10.0038 3.64392C10.0113 3.6309 10.0152 3.61614 10.0152 3.60112C10.0152 3.5861 10.0113 3.57135 10.0038 3.55832C9.99633 3.5453 9.98557 3.53446 9.9726 3.52689L6.69107 1.62037C6.4811 1.49866 6.24272 1.43457 6.00003 1.43457C5.75734 1.43457 5.51895 1.49866 5.30898 1.62037L2.02811 3.52689C2.01513 3.53446 2.00437 3.5453 1.99689 3.55832C1.98941 3.57135 1.98547 3.5861 1.98547 3.60112C1.98547 3.61614 1.98941 3.6309 1.99689 3.64392C2.00437 3.65694 2.01513 3.66778 2.02811 3.67535L5.95717 5.98664C5.97038 5.99442 5.98544 5.99853 6.00078 5.99853C6.01612 5.99853 6.03118 5.99442 6.04439 5.98664L9.9726 3.67535Z" fill="#2D3748"/>
<path d="M1.66028 4.25956C1.64718 4.25199 1.6323 4.24802 1.61717 4.24805C1.60204 4.24807 1.58718 4.25209 1.5741 4.2597C1.56102 4.26731 1.55018 4.27824 1.54268 4.29138C1.53518 4.30452 1.53128 4.31941 1.53137 4.33454V8.07046C1.5317 8.25049 1.57915 8.4273 1.66901 8.58331C1.75886 8.73932 1.888 8.86908 2.04356 8.9597L5.52747 11.0486C5.54052 11.0562 5.55534 11.0601 5.57041 11.0601C5.58549 11.0601 5.60031 11.0562 5.61337 11.0486C5.62643 11.0411 5.63728 11.0303 5.64483 11.0172C5.65238 11.0042 5.65636 10.9894 5.65637 10.9743V6.63981C5.65636 6.62474 5.65238 6.60994 5.64484 6.5969C5.6373 6.58385 5.62646 6.57301 5.6134 6.56548L1.66028 4.25956Z" fill="#2D3748"/>
<path d="M6.34387 6.65497V10.9733C6.34389 10.9884 6.34787 11.0032 6.35542 11.0163C6.36297 11.0293 6.37382 11.0402 6.38688 11.0477C6.39994 11.0552 6.41475 11.0592 6.42983 11.0592C6.44491 11.0592 6.45972 11.0552 6.47278 11.0477L9.95647 8.95874C10.1119 8.86824 10.241 8.73866 10.3309 8.58285C10.4208 8.42705 10.4683 8.25045 10.4689 8.07057V4.33466C10.4688 4.3196 10.4648 4.30482 10.4572 4.2918C10.4497 4.27877 10.4388 4.26797 10.4258 4.26046C10.4127 4.25295 10.3979 4.24901 10.3829 4.24902C10.3678 4.24904 10.353 4.25301 10.34 4.26054L6.38684 6.58085C6.37382 6.58837 6.363 6.59917 6.35546 6.61217C6.34792 6.62518 6.34393 6.63994 6.34387 6.65497Z" fill="#2D3748"/>
</g>
<defs>
<clipPath id="clip0_92_22">
<rect width="11" height="11" fill="white" transform="translate(0.500122 0.747559)"/>
</clipPath>
</defs>
</svg>
