<svg width="12" height="12" viewBox="0 0 12 12" fill="none" xmlns="http://www.w3.org/2000/svg">
<path d="M5.18623 4.33935C5.18623 4.61864 5.18623 4.88935 5.27432 5.14286C4.34834 6.22997 1.90342 9.10243 1.67568 9.32157C1.63042 9.36218 1.59421 9.41186 1.56941 9.46738C1.54461 9.52291 1.53178 9.58303 1.53174 9.64384C1.53174 9.82645 1.64346 10.0026 1.73799 10.1015C1.87979 10.2497 2.48564 10.8104 2.59736 10.703C2.92822 10.3808 2.99482 10.2948 3.13018 10.1616C3.33428 9.96181 3.10869 9.5536 3.17959 9.38817C3.25049 9.22274 3.32568 9.19052 3.44814 9.16473C3.57061 9.13895 3.7876 9.22704 3.95732 9.22919C4.13564 9.23134 4.23232 9.15614 4.36553 9.03153C4.47295 8.9327 4.55029 8.84032 4.55244 8.69638C4.55674 8.50302 4.27744 8.24735 4.48584 8.04325C4.69424 7.83915 4.99502 8.17645 5.21631 8.15067C5.4376 8.12489 5.70615 7.81767 5.73408 7.68661C5.76201 7.55556 5.48271 7.21825 5.52568 7.02704C5.54072 6.96259 5.67178 6.8122 5.77061 6.79071C5.86943 6.76923 6.30771 6.93895 6.40654 6.91747C6.52685 6.89169 6.6665 6.76493 6.78037 6.69403C7.11338 6.83798 7.41631 6.89599 7.80518 6.89599C9.27685 6.89599 10.4692 5.74872 10.4692 4.33505C10.4692 2.92138 9.27685 1.77905 7.80518 1.77905C6.3335 1.77905 5.18623 2.92567 5.18623 4.33935ZM9.09424 3.84155C9.09424 3.97753 9.05392 4.11045 8.97837 4.22351C8.90283 4.33657 8.79546 4.42468 8.66983 4.47672C8.54421 4.52875 8.40597 4.54237 8.27261 4.51584C8.13925 4.48931 8.01675 4.42384 7.9206 4.32769C7.82445 4.23154 7.75898 4.10904 7.73245 3.97568C7.70592 3.84231 7.71954 3.70408 7.77157 3.57846C7.82361 3.45283 7.91172 3.34546 8.02478 3.26992C8.13784 3.19437 8.27076 3.15405 8.40674 3.15405C8.58907 3.15405 8.76394 3.22649 8.89287 3.35542C9.0218 3.48435 9.09424 3.65922 9.09424 3.84155Z" fill="#2D3748"/>
</svg>
