<svg width="12" height="12" viewBox="0 0 12 12" fill="none" xmlns="http://www.w3.org/2000/svg">
<g clip-path="url(#clip0_92_42)">
<path d="M7.64695 2.13478C7.22886 1.68339 6.64492 1.43481 6.00039 1.43481C5.35242 1.43481 4.76654 1.68188 4.35039 2.13048C3.92972 2.58401 3.72476 3.2004 3.77289 3.86599C3.86828 5.17911 4.86752 6.24731 6.00039 6.24731C7.13326 6.24731 8.13078 5.17933 8.22767 3.86642C8.27644 3.20685 8.07019 2.59175 7.64695 2.13478Z" fill="#2D3748"/>
<path d="M9.78149 11.0593H2.21899C2.12001 11.0606 2.02198 11.0398 1.93204 10.9985C1.8421 10.9571 1.76252 10.8962 1.69907 10.8202C1.55942 10.6533 1.50314 10.4253 1.54482 10.1948C1.72614 9.1889 2.29204 8.34392 3.18149 7.75073C3.97169 7.22415 4.97265 6.93433 6.00024 6.93433C7.02784 6.93433 8.0288 7.22437 8.81899 7.75073C9.70844 8.3437 10.2743 9.18868 10.4557 10.1946C10.4974 10.4251 10.4411 10.6531 10.3014 10.82C10.238 10.896 10.1584 10.957 10.0685 10.9984C9.97853 11.0398 9.88049 11.0606 9.78149 11.0593Z" fill="#2D3748"/>
</g>
<defs>
<clipPath id="clip0_92_42">
<rect width="11" height="11" fill="white" transform="translate(0.500366 0.747559)"/>
</clipPath>
</defs>
</svg>
